# xmcd CD database file
#
# Track frame offsets:
#	150
#	26682
#	49369
#	70375
#	99584
#	124826
#	147219
#	165101
#	186471
#	207803
#	230304
#	250635
#
# Disc length: 3527 seconds
#
# Revision: 0
# Processed by: cddbd v1.5.2PL0 Copyright (c) Steve Scherf et al.
# Submitted via: CDex 1.51
#
DISCID=a40dc50c
DTITLE=varios - JAZZ LOUNGE 3
DYEAR=2005
DGENRE=Jazz
TTITLE0=WINELIGHT
TTITLE1=EAST RIVER DRIVE
TTITLE2=KISS OF LIFE
TTITLE3=NO ORDINARY LOVE
TTITLE4=IN THE NAME OF LOVE
TTITLE5=MR. MAGIC
TTITLE6=ONE NOTE SAMBA
TTITLE7=COME MORNING
TTITLE8=SO LOW
TTITLE9=COME AWAY WITH ME
TTITLE10=SUNRISE
TTITLE11=DON'T KNOW WHY
EXTD=YEAR: 2005
EXTT0=
EXTT1=
EXTT2=
EXTT3=
EXTT4=
EXTT5=
EXTT6=
EXTT7=
EXTT8=
EXTT9=
EXTT10=
EXTT11=
PLAYORDER=
